solid carcasa v4 para esp32 jc4827w543 TAPA
facet normal -0.3830070933952329 -0.9237454012922494 5.9707729579168e-07
  outer loop
    vertex 4.000015954165759 4.182047505710941e-06 1.9998134532569327
    vertex 2.2932221617112343 0.7076807068887698 -8.753718610798877e-06
    vertex 4.000013012252507 4.1091043055293575e-06 -0.00018654674092750677
  endloop
endfacet
facet normal -0.3830070933952329 -0.9237454012922494 5.9707729579168e-07
  outer loop
    vertex 2.2932221617112343 0.7076807068887698 -8.753718610798877e-06
    vertex 4.000015954165759 4.182047505710941e-06 1.9998134532569327
    vertex 2.2932251036244957 0.7076807798319706 1.9999912462792495
  endloop
endfacet
facet normal 2.6642525829313856e-07 -0.9999999999999639 3.647120819082828e-08
  outer loop
    vertex 183.0000049719778 5.187216358720558e-05 1.9997523901133123
    vertex 4.000013012252507 4.1091043055293575e-06 -0.00018654674092750677
    vertex 183.00000203006434 5.1799220387024016e-05 -0.0002476098845450192
  endloop
endfacet
facet normal 2.6642525829313856e-07 -0.9999999999999639 3.647120819082828e-08
  outer loop
    vertex 4.000013012252507 4.1091043055293575e-06 -0.00018654674092750677
    vertex 183.0000049719778 5.187216358720558e-05 1.9997523901133123
    vertex 4.000015954165759 4.182047505710941e-06 1.9998134532569327
  endloop
endfacet
facet normal 0.3826836584706533 -0.9238794388551119 -5.292157027576277e-07
  outer loop
    vertex 184.70711175582284 0.7071591439217821 1.9997515708249534
    vertex 183.00000203006434 5.1799220387024016e-05 -0.0002476098845450192
    vertex 184.7071088139094 0.7071590709785812 -0.00024842917290395227
  endloop
endfacet
facet normal 0.3826836584706533 -0.9238794388551119 -5.292157027576277e-07
  outer loop
    vertex 183.00000203006434 5.1799220387024016e-05 -0.0002476098845450192
    vertex 184.70711175582284 0.7071591439217821 1.9997515708249534
    vertex 183.0000049719778 5.187216358720558e-05 1.9997523901133123
  endloop
endfacet
facet normal 0.7071018818173384 -0.7071116805210831 -1.014326705906867e-06
  outer loop
    vertex 186.29290625030387 2.292934532400034 -0.00024761106322050973
    vertex 184.70711175582284 0.7071591439217821 1.9997515708249534
    vertex 184.7071088139094 0.7071590709785812 -0.00024842917290395227
  endloop
endfacet
facet normal 0.7071018818173384 -0.7071116805210831 -1.014326705906867e-06
  outer loop
    vertex 184.70711175582284 0.7071591439217821 1.9997515708249534
    vertex 186.29290625030387 2.292934532400034 -0.00024761106322050973
    vertex 186.29290919221734 2.2929346053432367 1.9997523889346398
  endloop
endfacet
facet normal 0.9238795303519204 -0.3826834375758977 -1.3450296421422973e-06
  outer loop
    vertex 187.0000130416702 4.000041310927575 -0.00024751777103921847
    vertex 186.29290919221734 2.2929346053432367 1.9997523889346398
    vertex 186.29290625030387 2.292934532400034 -0.00024761106322050973
  endloop
endfacet
facet normal 0.9238795303519204 -0.3826834375758977 -1.3450296421422973e-06
  outer loop
    vertex 186.29290919221734 2.2929346053432367 1.9997523889346398
    vertex 187.0000130416702 4.000041310927575 -0.00024751777103921847
    vertex 187.00001598358364 4.000041383870778 1.9997524822268182
  endloop
endfacet
facet normal 0.9999999999989182 7.608818172142553e-10 -1.4709566288858652e-06
  outer loop
    vertex 187.00001298499586 78.60004033588818 -0.0001880666367897854
    vertex 187.00001598358364 4.000041383870778 1.9997524822268182
    vertex 187.0000130416702 4.000041310927575 -0.00024751777103921847
  endloop
endfacet
facet normal 0.9999999999989182 7.608818172142553e-10 -1.4709566288858652e-06
  outer loop
    vertex 187.00001598358364 4.000041383870778 1.9997524822268182
    vertex 187.00001298499586 78.60004033588818 -0.0001880666367897854
    vertex 187.0000159269093 78.60004040883139 1.9998119333610704
  endloop
endfacet
facet normal 0.9238795344184322 0.3826834277583705 -1.3729438023592024e-06
  outer loop
    vertex 186.29290621280748 80.30714711942507 -0.00018810204512365036
    vertex 187.0000159269093 78.60004040883139 1.9998119333610704
    vertex 187.00001298499586 78.60004033588818 -0.0001880666367897854
  endloop
endfacet
facet normal 0.9238795344184322 0.3826834277583705 -1.3729438023592024e-06
  outer loop
    vertex 187.0000159269093 78.60004040883139 1.9998119333610704
    vertex 186.29290621280748 80.30714711942507 -0.00018810204512365036
    vertex 186.29290915472095 80.30714719236829 1.9998118979527366
  endloop
endfacet
facet normal 0.7071048065566458 0.7071087558101318 -1.065909890265689e-06
  outer loop
    vertex 184.70711829868748 81.89292919164521 1.9998118650639582
    vertex 186.29290621280748 80.30714711942507 -0.00018810204512365036
    vertex 184.707115356774 81.892929118702 -0.00018813493390206214
  endloop
endfacet
facet normal 0.7071048065566458 0.7071087558101318 -1.065909890265689e-06
  outer loop
    vertex 186.29290621280748 80.30714711942507 -0.00018810204512365036
    vertex 184.70711829868748 81.89292919164521 1.9998118650639582
    vertex 186.29290915472095 80.30714719236829 1.9998118979527366
  endloop
endfacet
facet normal 0.3830646329020575 0.9237215419266 -5.971610637214226e-07
  outer loop
    vertex 183.00059272304136 82.600620377165 1.9996835125109014
    vertex 184.707115356774 81.892929118702 -0.00018813493390206214
    vertex 183.0005897811279 82.60062030422179 -0.0003164874869588496
  endloop
endfacet
facet normal 0.3830646329020575 0.9237215419266 -5.971610637214226e-07
  outer loop
    vertex 184.707115356774 81.892929118702 -0.00018813493390206214
    vertex 183.00059272304136 82.600620377165 1.9996835125109014
    vertex 184.70711829868748 81.89292919164521 1.9998118650639582
  endloop
endfacet
facet normal -2.547205115064977e-07 0.9999999999999669 -3.647122540800326e-08
  outer loop
    vertex 4.000328942897469 82.60057470919496 -1.0139241146966959e-05
    vertex 183.00059272304136 82.600620377165 1.9996835125109014
    vertex 183.0005897811279 82.60062030422179 -0.0003164874869588496
  endloop
endfacet
facet normal -2.547205115064977e-07 0.9999999999999669 -3.647122540800326e-08
  outer loop
    vertex 183.00059272304136 82.600620377165 1.9996835125109014
    vertex 4.000328942897469 82.60057470919496 -1.0139241146966959e-05
    vertex 4.000331884810722 82.60057478213817 1.9999898607567133
  endloop
endfacet
facet normal -0.38268356982579077 0.9238794755730366 5.292155710257181e-07
  outer loop
    vertex 2.293222231849716 81.8934676594876 -9.5479324368819e-06
    vertex 4.000331884810722 82.60057478213817 1.9999898607567133
    vertex 4.000328942897469 82.60057470919496 -1.0139241146966959e-05
  endloop
endfacet
facet normal -0.38268356982579077 0.9238794755730366 5.292155710257181e-07
  outer loop
    vertex 4.000331884810722 82.60057478213817 1.9999898607567133
    vertex 2.293222231849716 81.8934676594876 -9.5479324368819e-06
    vertex 2.2932251737629774 81.89346773243082 1.9999904520654233
  endloop
endfacet
facet normal -0.707106851324702 0.7071067110476588 1.014334197081313e-06
  outer loop
    vertex 0.7074385958588655 80.30768083993486 1.9999910013511735
    vertex 2.293222231849716 81.8934676594876 -9.5479324368819e-06
    vertex 0.7074356539456086 80.30768076699164 -8.998646686841915e-06
  endloop
endfacet
facet normal -0.707106851324702 0.7071067110476588 1.014334197081313e-06
  outer loop
    vertex 2.293222231849716 81.8934676594876 -9.5479324368819e-06
    vertex 0.7074385958588655 80.30768083993486 1.9999910013511735
    vertex 2.2932251737629774 81.89346773243082 1.9999904520654233
  endloop
endfacet
facet normal -0.9238795514897784 0.38268338654459083 1.345029675096363e-06
  outer loop
    vertex 0.000331884811040354 78.60057398860964 1.9999912462792495
    vertex 0.7074356539456086 80.30768076699164 -8.998646686841915e-06
    vertex 0.0003289428977826377 78.60057391566643 -8.753718610798877e-06
  endloop
endfacet
facet normal -0.9238795514897784 0.38268338654459083 1.345029675096363e-06
  outer loop
    vertex 0.7074356539456086 80.30768076699164 -8.998646686841915e-06
    vertex 0.000331884811040354 78.60057398860964 1.9999912462792495
    vertex 0.7074385958588655 80.30768083993486 1.9999910013511735
  endloop
endfacet
facet normal -0.9999999999990903 9.765972302716715e-09 1.348931751848958e-06
  outer loop
    vertex 0.000331884811040354 4.000573998645432 1.9999912462792495
    vertex 0.0003294310966403673 29.000004578211115 -8.753719090193179e-06
    vertex 0.0003289428977826377 4.000573925702228 -8.753718610798877e-06
  endloop
endfacet
facet normal -0.9999999999990903 9.765972302716715e-09 1.348931751848958e-06
  outer loop
    vertex 0.0003294310966403673 29.000004578211115 -8.753719090193179e-06
    vertex 0.000331884811040354 4.000573998645432 1.9999912462792495
    vertex 0.0003318847810463866 29.000003116431717 1.9999033241596071
  endloop
endfacet
facet normal -0.9239850864001872 -0.3824285032632289 1.3730897672422142e-06
  outer loop
    vertex 0.7071227353523055 2.292897400860959 1.9998134532569327
    vertex 0.0003289428977826377 4.000573925702228 -8.753718610798877e-06
    vertex 0.7071197934390486 2.2928973279177565 -0.00018654674092750677
  endloop
endfacet
facet normal -0.9239850864001872 -0.3824285032632289 1.3730897672422142e-06
  outer loop
    vertex 0.0003289428977826377 4.000573925702228 -8.753718610798877e-06
    vertex 0.7071227353523055 2.292897400860959 1.9998134532569327
    vertex 0.000331884811040354 4.000573998645432 1.9999912462792495
  endloop
endfacet
facet normal -0.7069092592290905 -0.7073042479831739 1.0656293785403222e-06
  outer loop
    vertex 2.2932221617112343 0.7076807068887698 -8.753718610798877e-06
    vertex 0.7071227353523055 2.292897400860959 1.9998134532569327
    vertex 0.7071197934390486 2.2928973279177565 -0.00018654674092750677
  endloop
endfacet
facet normal -0.7069092592290905 -0.7073042479831739 1.0656293785403222e-06
  outer loop
    vertex 0.7071227353523055 2.292897400860959 1.9998134532569327
    vertex 2.2932221617112343 0.7076807068887698 -8.753718610798877e-06
    vertex 2.2932251036244957 0.7076807798319706 1.9999912462792495
  endloop
endfacet
facet normal -0.7070991797851844 0.7071143825052391 1.1635455737806931e-06
  outer loop
    vertex 183.0000049719778 3.0000518721635876 1.9997523901133123
    vertex 184.00001380099704 4.00004249223902 -0.00021073598022988138
    vertex 183.0000027893912 3.0000529805318297 -0.00021082809373568212
  endloop
endfacet
facet normal -0.7070991797851844 0.7071143825052391 1.1635455737806931e-06
  outer loop
    vertex 184.00001380099704 4.00004249223902 -0.00021073598022988138
    vertex 183.0000049719778 3.0000518721635876 1.9997523901133123
    vertex 184.00001598358364 4.000041383870778 1.9997524822268182
  endloop
endfacet
facet normal -0.9999999999994045 -7.605792673303813e-10 1.0913133915017095e-06
  outer loop
    vertex 184.00001592690933 78.60004040883139 1.9998119333610704
    vertex 184.00001380099704 4.00004249223902 -0.00021073598022988138
    vertex 184.00001598358364 4.000041383870778 1.9997524822268182
  endloop
endfacet
facet normal -0.9999999999994045 -7.605792673303813e-10 1.0913133915017095e-06
  outer loop
    vertex 184.00001380099704 4.00004249223902 -0.00021073598022988138
    vertex 184.00001592690933 78.60004040883139 1.9998119333610704
    vertex 184.0000137443227 78.60004151719963 -0.00015128484597762835
  endloop
endfacet
facet normal -0.7075156402203739 -0.7066976856077921 3.8047345475617707e-07
  outer loop
    vertex 183.00059272304136 79.600620377165 1.9996835125109014
    vertex 184.0000137443227 78.60004151719963 -0.00015128484597762835
    vertex 184.00001592690933 78.60004040883139 1.9998119333610704
  endloop
endfacet
facet normal -0.7075156402203739 -0.7066976856077921 3.8047345475617707e-07
  outer loop
    vertex 184.0000137443227 78.60004151719963 -0.00015128484597762835
    vertex 183.00059272304136 79.600620377165 1.9996835125109014
    vertex 183.00059054045477 79.60062148553324 -0.0002797056961466926
  endloop
endfacet
facet normal 0.7071070617399139 -0.7071065006321127 -1.1635498073741811e-06
  outer loop
    vertex 3.0003297022243975 78.60057509697789 2.8028072201358167e-05
    vertex 4.000331884810722 79.60057478213818 1.9999898607567133
    vertex 3.0003318848110405 78.60057398860964 1.9999912462792495
  endloop
endfacet
facet normal 0.7071070617399139 -0.7071065006321127 -1.1635498073741811e-06
  outer loop
    vertex 4.000331884810722 79.60057478213818 1.9999898607567133
    vertex 3.0003297022243975 78.60057509697789 2.8028072201358167e-05
    vertex 4.00032970222408 79.60057589050642 2.6642549665190083e-05
  endloop
endfacet
facet normal 0.7074198309874654 0.7067935927309481 -3.8031574567499953e-07
  outer loop
    vertex 4.000013771579116 3.000005290415748 -0.00014976495012098965
    vertex 3.0003318848110405 4.000573998645432 1.9999912462792495
    vertex 4.000015954165759 3.0000041820475056 1.9998134532569327
  endloop
endfacet
facet normal 0.7074198309874654 0.7067935927309481 -3.8031574567499953e-07
  outer loop
    vertex 3.0003318848110405 4.000573998645432 1.9999912462792495
    vertex 4.000013771579116 3.000005290415748 -0.00014976495012098965
    vertex 3.0003297022243975 4.000575107013673 2.8028072201358167e-05
  endloop
endfacet
facet normal -1.9575917895762025e-06 0.9999999992091624 3.9722072867438825e-05
  outer loop
    vertex 4.000013771579116 3.000005290415748 -0.00014976495012098965
    vertex 17.004724407132752 2.999063156368127 1.9978835765147314
    vertex 17.00472440524692 2.9992210042104333 -0.002113019951237732
  endloop
endfacet
facet normal -1.9575917895762025e-06 0.9999999992091624 3.9722072867438825e-05
  outer loop
    vertex 17.004724407132752 2.999063156368127 1.9978835765147314
    vertex 4.000013771579116 3.000005290415748 -0.00014976495012098965
    vertex 4.000015954165759 3.0000041820475056 1.9998134532569327
  endloop
endfacet
facet normal -0.9999999999769749 6.784847552791977e-06 1.2746666781814396e-07
  outer loop
    vertex 91.49888140604858 56.6055640506411 1.998989070489383
    vertex 91.4999852189962 79.60059778528172 -0.00014777553458184543
    vertex 91.49888089619715 56.605564050608216 -0.0009904064543939327
  endloop
endfacet
facet normal -0.9999999999769749 6.784847552791977e-06 1.2746666781814396e-07
  outer loop
    vertex 91.4999852189962 79.60059778528172 -0.00014777553458184543
    vertex 91.49888140604858 56.6055640506411 1.998989070489383
    vertex 91.49998521899643 79.6005969540051 1.9998154426732915
  endloop
endfacet
facet normal 0.9999999999999547 3.0106158982425424e-07 1.0102877677477318e-14
  outer loop
    vertex 95.50000828048498 3.0000296683242804 -0.000180978791731079
    vertex 95.49998521899597 79.6005982967983 1.9998140781336091
    vertex 95.50000828048512 3.0000291141398687 1.9997822394160643
  endloop
endfacet
facet normal 0.9999999999999547 3.0106158982425424e-07 1.0102877677477318e-14
  outer loop
    vertex 95.49998521899597 79.6005982967983 1.9998140781336091
    vertex 95.50000828048498 3.0000296683242804 -0.000180978791731079
    vertex 95.49998521899583 79.6005988509827 -0.00014914007418733165
  endloop
endfacet
facet normal 2.5070111895646227e-07 -0.9999999999999256 -2.936241763486508e-07
  outer loop
    vertex 137.24998322770531 79.60060873052288 1.9997919165025024
    vertex 95.49998521899583 79.6005988509827 -0.00014914007418733165
    vertex 137.24998322770514 79.60060935081357 -0.00017130170533266042
  endloop
endfacet
facet normal 2.5070111895646227e-07 -0.9999999999999256 -2.936241763486508e-07
  outer loop
    vertex 95.49998521899583 79.6005988509827 -0.00014914007418733165
    vertex 137.24998322770531 79.60060873052288 1.9997919165025024
    vertex 95.49998521899597 79.6005982967983 1.9998140781336091
  endloop
endfacet
facet normal -2.582047916592473e-07 0.9999999999998936 3.8259219819413124e-07
  outer loop
    vertex 141.25000553493788 3.000041857278547 -0.00019658571253612365
    vertex 183.0000049719778 3.0000518721635876 1.9997523901133123
    vertex 183.0000027893912 3.0000529805318297 -0.00021082809373568212
  endloop
endfacet
facet normal -2.582047916592473e-07 0.9999999999998936 3.8259219819413124e-07
  outer loop
    vertex 183.0000049719778 3.0000518721635876 1.9997523901133123
    vertex 141.25000553493788 3.000041857278547 -0.00019658571253612365
    vertex 141.250005534938 3.000041435306705 1.9997666324952574
  endloop
endfacet
facet normal -2.6563345368760103e-07 0.9999999999999216 2.9362417546739517e-07
  outer loop
    vertex 95.50000828048498 3.0000296683242804 -0.000180978791731079
    vertex 137.25000553493845 3.000040171286874 1.9997679970349056
    vertex 137.25000553493825 3.0000407915775638 -0.00019522117292993245
  endloop
endfacet
facet normal -2.6563345368760103e-07 0.9999999999999216 2.9362417546739517e-07
  outer loop
    vertex 137.25000553493845 3.000040171286874 1.9997679970349056
    vertex 95.50000828048498 3.0000296683242804 -0.000180978791731079
    vertex 95.50000828048512 3.0000291141398687 1.9997822394160643
  endloop
endfacet
facet normal -0.9999999999999576 -2.9121498105581136e-07 -8.004445427057793e-17
  outer loop
    vertex 137.24998322770531 79.60060873052288 1.9997919165025024
    vertex 137.25000553493825 3.0000407915775638 -0.00019522117292993245
    vertex 137.25000553493845 3.000040171286874 1.9997679970349056
  endloop
endfacet
facet normal -0.9999999999999576 -2.9121498105581136e-07 -8.004445427057793e-17
  outer loop
    vertex 137.25000553493825 3.0000407915775638 -0.00019522117292993245
    vertex 137.24998322770531 79.60060873052288 1.9997919165025024
    vertex 137.24998322770514 79.60060935081357 -0.00017130170533266042
  endloop
endfacet
facet normal 0.9999999999999576 2.912149810558098e-07 5.043024286342438e-15
  outer loop
    vertex 141.25000553493788 3.000041857278547 -0.00019658571253612365
    vertex 141.2499832277049 79.60060999454271 1.9997905519628543
    vertex 141.250005534938 3.000041435306705 1.9997666324952574
  endloop
endfacet
facet normal 0.9999999999999576 2.912149810558098e-07 5.043024286342438e-15
  outer loop
    vertex 141.2499832277049 79.60060999454271 1.9997905519628543
    vertex 141.25000553493788 3.000041857278547 -0.00019658571253612365
    vertex 141.24998322770477 79.60061041651454 -0.00017266624493814662
  endloop
endfacet
facet normal 2.5690115528027906e-07 -0.9999999999998939 -3.825921982761318e-07
  outer loop
    vertex 183.00059272304136 79.600620377165 1.9996835125109014
    vertex 141.24998322770477 79.60061041651454 -0.00017266624493814662
    vertex 183.00059054045477 79.60062148553324 -0.0002797056961466926
  endloop
endfacet
facet normal 2.5690115528027906e-07 -0.9999999999998939 -3.825921982761318e-07
  outer loop
    vertex 141.24998322770477 79.60061041651454 -0.00017266624493814662
    vertex 183.00059272304136 79.600620377165 1.9996835125109014
    vertex 141.2499832277049 79.60060999454271 1.9997905519628543
  endloop
endfacet
facet normal -0.9999999999994245 -3.1881024770999836e-08 1.0724699072501285e-06
  outer loop
    vertex 0.00033188483851628956 53.600573763299565 1.999971818860996
    vertex 0.0003289428977826377 78.60057391566643 -8.753718610798877e-06
    vertex 0.0003305369007242975 53.60057376329955 -8.753718852611003e-06
  endloop
endfacet
facet normal -0.9999999999994245 -3.1881024770999836e-08 1.0724699072501285e-06
  outer loop
    vertex 0.0003289428977826377 78.60057391566643 -8.753718610798877e-06
    vertex 0.00033188483851628956 53.600573763299565 1.999971818860996
    vertex 0.000331884811040354 78.60057398860964 1.9999912462792495
  endloop
endfacet
facet normal 1.1670169219139793e-05 0.9999999999316365 7.309075132819849e-07
  outer loop
    vertex 0.0003294310966403673 29.000004578211115 -8.753719090193179e-06
    vertex 17.002235854808493 28.998914330793262 1.9998776374448313
    vertex 17.002233401124087 28.99891579257266 -3.4440433865284834e-05
  endloop
endfacet
facet normal 1.1670169219139793e-05 0.9999999999316365 7.309075132819849e-07
  outer loop
    vertex 17.002235854808493 28.998914330793262 1.9998776374448313
    vertex 0.0003294310966403673 29.000004578211115 -8.753719090193179e-06
    vertex 0.0003318847810463866 29.000003116431717 1.9999033241596071
  endloop
endfacet
facet normal 0.9999999999134044 1.3140139769148921e-05 -7.266639547770577e-07
  outer loop
    vertex 3.0003297022243975 78.60057509697789 2.8028072201358167e-05
    vertex 3.000620238607459 56.60057369561258 1.9999716407508945
    vertex 3.0006195145605083 56.600573695603074 -6.849304452788418e-06
  endloop
endfacet
facet normal 0.9999999999134044 1.3140139769148921e-05 -7.266639547770577e-07
  outer loop
    vertex 3.000620238607459 56.60057369561258 1.9999716407508945
    vertex 3.0003297022243975 78.60057509697789 2.8028072201358167e-05
    vertex 3.0003318848110405 78.60057398860964 1.9999912462792495
  endloop
endfacet
facet normal -1.3277269612100207e-05 0.9999999999118572 4.021006996842685e-14
  outer loop
    vertex 3.0006195145605083 56.600573695603074 -6.849304452788418e-06
    vertex 17.000449858539298 56.60075957512489 1.9999659489459714
    vertex 17.000449858539298 56.60075957512495 -1.928119309919651e-05
  endloop
endfacet
facet normal -1.3277269612100207e-05 0.9999999999118572 4.021006996842685e-14
  outer loop
    vertex 17.000449858539298 56.60075957512489 1.9999659489459714
    vertex 3.0006195145605083 56.600573695603074 -6.849304452788418e-06
    vertex 3.000620238607459 56.60057369561258 1.9999716407508945
  endloop
endfacet
facet normal 0.9999999999130758 -1.3135951511034376e-05 -1.1380958412442057e-06
  outer loop
    vertex 3.0003297022243975 4.000575107013673 2.8028072201358167e-05
    vertex 3.0006209617030875 26.000003049278057 1.999911365662479
    vertex 3.0003318848110405 4.000573998645432 1.9999912462792495
  endloop
endfacet
facet normal 0.9999999999130758 -1.3135951511034376e-05 -1.1380958412442057e-06
  outer loop
    vertex 3.0006209617030875 26.000003049278057 1.999911365662479
    vertex 3.0003297022243975 4.000575107013673 2.8028072201358167e-05
    vertex 3.00061859195837 25.99999578754344 -6.849182072588e-06
  endloop
endfacet
facet normal -1.3200510726848432e-05 -0.9999999992047484 -3.763309837528559e-05
  outer loop
    vertex 17.002637559096655 25.998695991135566 1.9987907878796103
    vertex 3.00061859195837 25.99999578754344 -6.849182072588e-06
    vertex 17.002637557210825 25.998853838977872 -0.0012058085863587975
  endloop
endfacet
facet normal -1.3200510726848432e-05 -0.9999999992047484 -3.763309837528559e-05
  outer loop
    vertex 3.00061859195837 25.99999578754344 -6.849182072588e-06
    vertex 17.002637559096655 25.998695991135566 1.9987907878796103
    vertex 3.0006209617030875 26.000003049278057 1.999911365662479
  endloop
endfacet
facet normal 4.7786028909115374e-06 0.9999999999885609 2.0781955997075164e-07
  outer loop
    vertex 21.004121900369373 2.999741493776272 1.997962787025163
    vertex 91.50000828048535 3.000028602623297 -0.00017961425212488779
    vertex 21.004120552431576 2.999741493776261 -0.0020177855546855195
  endloop
endfacet
facet normal 4.7786028909115374e-06 0.9999999999885609 2.0781955997075164e-07
  outer loop
    vertex 91.50000828048535 3.000028602623297 -0.00017961425212488779
    vertex 21.004121900369373 2.999741493776272 1.997962787025163
    vertex 91.50000828048557 3.000027771346679 1.9997836039557466
  endloop
endfacet
facet normal -0.9999999999118572 -1.3277269622612851e-05 -3.7190725849021005e-19
  outer loop
    vertex 17.000144485995715 79.60040876788088 1.9999659489468957
    vertex 17.000449858539298 56.60075957512495 -1.928119309919651e-05
    vertex 17.000449858539298 56.60075957512489 1.9999659489459714
  endloop
endfacet
facet normal -0.9999999999118572 -1.3277269622612851e-05 -3.7190725849021005e-19
  outer loop
    vertex 17.000449858539298 56.60075957512495 -1.928119309919651e-05
    vertex 17.000144485995715 79.60040876788088 1.9999659489468957
    vertex 17.000144485995715 79.60040876788094 -1.9281192174247507e-05
  endloop
endfacet
facet normal -1.4694681887401146e-06 -0.999999999998882 -2.7709331961716025e-07
  outer loop
    vertex 17.000144485995715 79.60040876788088 1.9999659489468957
    vertex 4.00032970222408 79.60057589050642 2.6642549665190083e-05
    vertex 17.000144485995715 79.60040876788094 -1.9281192174247507e-05
  endloop
endfacet
facet normal -1.4694681887401146e-06 -0.999999999998882 -2.7709331961716025e-07
  outer loop
    vertex 4.00032970222408 79.60057589050642 2.6642549665190083e-05
    vertex 17.000144485995715 79.60040876788088 1.9999659489468957
    vertex 4.000331884810722 79.60057478213818 1.9999898607567133
  endloop
endfacet
facet normal 2.601517370785116e-07 -0.9999999999999445 -2.0781906067394335e-07
  outer loop
    vertex 91.49998521899643 79.6005969540051 1.9998154426732915
    vertex 20.999180356576 79.60000094456925 -1.8058626934752687e-05
    vertex 91.4999852189962 79.60059778528172 -0.00014777553458184543
  endloop
endfacet
facet normal 2.601517370785116e-07 -0.9999999999999445 -2.0781906067394335e-07
  outer loop
    vertex 20.999180356576 79.60000094456925 -1.8058626934752687e-05
    vertex 91.49998521899643 79.6005969540051 1.9998154426732915
    vertex 20.999181080622954 79.60000094457877 1.9999604314284112
  endloop
endfacet
facet normal 0.9999999979197494 6.450024834420315e-05 -4.6852440199385085e-07
  outer loop
    vertex 21.00263737516216 25.99911171922801 -0.001069451443319691
    vertex 21.004121900369373 2.999741493776272 1.997962787025163
    vertex 21.004120552431576 2.999741493776261 -0.0020177855546855195
  endloop
endfacet
facet normal 0.9999999979197494 6.450024834420315e-05 -4.6852440199385085e-07
  outer loop
    vertex 21.004121900369373 2.999741493776272 1.997962787025163
    vertex 21.00263737516216 25.99911171922801 -0.001069451443319691
    vertex 21.002637901303114 25.999111719261947 1.9989101342481035
  endloop
endfacet
facet normal 0.9999999979207321 6.448597434885052e-05 -3.084778208065961e-07
  outer loop
    vertex 20.999180356576 79.60000094456925 -1.8058626934752687e-05
    vertex 21.000664018746672 56.60101759767568 1.999013084205466
    vertex 21.000663508895254 56.6010175976428 -0.0009663927383097459
  endloop
endfacet
facet normal 0.9999999979207321 6.448597434885052e-05 -3.084778208065961e-07
  outer loop
    vertex 21.000664018746672 56.60101759767568 1.999013084205466
    vertex 20.999180356576 79.60000094456925 -1.8058626934752687e-05
    vertex 20.999181080622954 79.60000094457877 1.9999604314284112
  endloop
endfacet
facet normal -6.449096184174719e-05 0.9999999979204579 -2.8202752838203037e-15
  outer loop
    vertex 21.000663508895254 56.6010175976428 -0.0009663927383097459
    vertex 91.49888140604858 56.6055640506411 1.998989070489383
    vertex 91.49888089619715 56.605564050608216 -0.0009904064543939327
  endloop
endfacet
facet normal -6.449096184174719e-05 0.9999999979204579 -2.8202752838203037e-15
  outer loop
    vertex 91.49888140604858 56.6055640506411 1.998989070489383
    vertex 21.000663508895254 56.6010175976428 -0.0009663927383097459
    vertex 21.000664018746672 56.60101759767568 1.999013084205466
  endloop
endfacet
facet normal 6.449096184174719e-05 -0.9999999979204579 2.0708198983067823e-15
  outer loop
    vertex 91.50085496049735 26.00365830068369 1.9988846799840323
    vertex 21.00263737516216 25.99911171922801 -0.001069451443319691
    vertex 91.50085443435641 26.003658300649754 -0.0010949057073911916
  endloop
endfacet
facet normal 6.449096184174719e-05 -0.9999999979204579 2.0708198983067823e-15
  outer loop
    vertex 21.00263737516216 25.99911171922801 -0.001069451443319691
    vertex 91.50085496049735 26.00365830068369 1.9988846799840323
    vertex 21.002637901303114 25.999111719261947 1.9989101342481035
  endloop
endfacet
facet normal -0.9999999999999425 -3.1295693741907566e-07 1.3153764333845787e-07
  outer loop
    vertex 91.50085496049735 26.00365830068369 1.9988846799840323
    vertex 91.50000828048535 3.000028602623297 -0.00017961425212488779
    vertex 91.50000828048557 3.000027771346679 1.9997836039557466
  endloop
endfacet
facet normal -0.9999999999999425 -3.1295693741907566e-07 1.3153764333845787e-07
  outer loop
    vertex 91.50000828048535 3.000028602623297 -0.00017961425212488779
    vertex 91.50085496049735 26.00365830068369 1.9988846799840323
    vertex 91.50085443435641 26.003658300649754 -0.0010949057073911916
  endloop
endfacet
facet normal 1.8104150604190137e-06 -0.9999999999109297 -1.3223589658034873e-05
  outer loop
    vertex 17.000331884837962 53.600578093494654 1.9999723667447555
    vertex 0.0003305369007242975 53.60057376329955 -8.753718852611003e-06
    vertex 17.00033132663906 53.59996481964395 -1.7799314636202102e-05
  endloop
endfacet
facet normal 1.8104150604190137e-06 -0.9999999999109297 -1.3223589658034873e-05
  outer loop
    vertex 0.0003305369007242975 53.60057376329955 -8.753718852611003e-06
    vertex 17.000331884837962 53.600578093494654 1.9999723667447555
    vertex 0.00033188483851628956 53.600573763299565 1.999971818860996
  endloop
endfacet
facet normal -0.9999999970069964 -7.736688212514236e-05 6.108121654463206e-07
  outer loop
    vertex 17.000331884837962 53.600578093494654 1.9999723667447555
    vertex 17.002233401124087 28.99891579257266 -3.4440433865284834e-05
    vertex 17.002235854808493 28.998914330793262 1.9998776374448313
  endloop
endfacet
facet normal -0.9999999970069964 -7.736688212514236e-05 6.108121654463206e-07
  outer loop
    vertex 17.002233401124087 28.99891579257266 -3.4440433865284834e-05
    vertex 17.000331884837962 53.600578093494654 1.9999723667447555
    vertex 17.00033132663906 53.59996481964395 -1.7799314636202102e-05
  endloop
endfacet
facet normal -0.9999999958407406 -9.07336082267652e-05 -9.269916827162731e-06
  outer loop
    vertex 17.002637559096655 25.998695991135566 1.9987907878796103
    vertex 17.00472440524692 2.9992210042104333 -0.002113019951237732
    vertex 17.004724407132752 2.999063156368127 1.9978835765147314
  endloop
endfacet
facet normal -0.9999999958407406 -9.07336082267652e-05 -9.269916827162731e-06
  outer loop
    vertex 17.00472440524692 2.9992210042104333 -0.002113019951237732
    vertex 17.002637559096655 25.998695991135566 1.9987907878796103
    vertex 17.002637557210825 25.998853838977872 -0.0012058085863587975
  endloop
endfacet
facet normal 0.9999999999999654 7.454780531230227e-13 -2.6307470856098433e-07
  outer loop
    vertex 21.00294043370595 53.599964819627324 -0.0009670041963599607
    vertex 21.00294095984605 28.998997812183386 1.9989101342246793
    vertex 21.002940433705096 28.99899781214945 -0.0010694514667437427
  endloop
endfacet
facet normal 0.9999999999999654 7.454780531230227e-13 -2.6307470856098433e-07
  outer loop
    vertex 21.00294095984605 28.998997812183386 1.9989101342246793
    vertex 21.00294043370595 53.599964819627324 -0.0009670041963599607
    vertex 21.002940959846907 53.5999648197351 1.9989890706196374
  endloop
endfacet
facet normal 5.312323958728468e-13 -1.0 3.5165438935740936e-11
  outer loop
    vertex 91.49857837245884 53.5999648197351 1.9989890706196374
    vertex 21.00294043370595 53.599964819627324 -0.0009670041963599607
    vertex 91.4985778626074 53.59996481970222 -0.000990406324138271
  endloop
endfacet
facet normal 5.312323958728468e-13 -1.0 3.5165438935740936e-11
  outer loop
    vertex 21.00294043370595 53.599964819627324 -0.0009670041963599607
    vertex 91.49857837245884 53.5999648197351 1.9989890706196374
    vertex 21.002940959846907 53.5999648197351 1.9989890706196374
  endloop
endfacet
facet normal -0.9999999999999676 -4.16137663955676e-13 2.5492491424696833e-07
  outer loop
    vertex 91.49857837245884 53.5999648197351 1.9989890706196374
    vertex 91.49857786260657 28.99899781214945 -0.0010694514667437427
    vertex 91.498578372458 28.998997812140857 1.9989636274548754
  endloop
endfacet
facet normal -0.9999999999999676 -4.16137663955676e-13 2.5492491424696833e-07
  outer loop
    vertex 91.49857786260657 28.99899781214945 -0.0010694514667437427
    vertex 91.49857837245884 53.5999648197351 1.9989890706196374
    vertex 91.4985778626074 53.59996481970222 -0.000990406324138271
  endloop
endfacet
facet normal 3.0165748488012696e-13 1.0 -6.334892529100988e-12
  outer loop
    vertex 21.00294095984605 28.998997812183386 1.9989101342246793
    vertex 91.49857786260657 28.99899781214945 -0.0010694514667437427
    vertex 21.002940433705096 28.99899781214945 -0.0010694514667437427
  endloop
endfacet
facet normal 3.0165748488012696e-13 1.0 -6.334892529100988e-12
  outer loop
    vertex 91.49857786260657 28.99899781214945 -0.0010694514667437427
    vertex 21.00294095984605 28.998997812183386 1.9989101342246793
    vertex 91.498578372458 28.998997812140857 1.9989636274548754
  endloop
endfacet
facet normal -4.067452120232147e-07 3.201017602012063e-06 -0.9999999999947942
  outer loop
    vertex 21.000663508895254 56.6010175976428 -0.0009663927383097459
    vertex 21.00294043370595 53.599964819627324 -0.0009670041963599607
    vertex 21.00263737516216 25.99911171922801 -0.001069451443319691
  endloop
endfacet
facet normal -4.067452120232147e-07 3.201017602012063e-06 -0.9999999999947942
  outer loop
    vertex 21.00294043370595 53.599964819627324 -0.0009670041963599607
    vertex 21.000663508895254 56.6010175976428 -0.0009663927383097459
    vertex 91.49888089619715 56.605564050608216 -0.0009904064543939327
  endloop
endfacet
facet normal -4.067452120232147e-07 3.201017602012063e-06 -0.9999999999947942
  outer loop
    vertex 21.00263737516216 25.99911171922801 -0.001069451443319691
    vertex 21.00294043370595 53.599964819627324 -0.0009670041963599607
    vertex 21.002940433705096 28.99899781214945 -0.0010694514667437427
  endloop
endfacet
facet normal -4.067452120232147e-07 3.201017602012063e-06 -0.9999999999947942
  outer loop
    vertex 21.00294043370595 53.599964819627324 -0.0009670041963599607
    vertex 91.49888089619715 56.605564050608216 -0.0009904064543939327
    vertex 91.4985778626074 53.59996481970222 -0.000990406324138271
  endloop
endfacet
facet normal -4.067452120232147e-07 3.201017602012063e-06 -0.9999999999947942
  outer loop
    vertex 4.000328942897469 82.60057470919496 -1.0139241146966959e-05
    vertex 3.0003297022243975 78.60057509697789 2.8028072201358167e-05
    vertex 2.293222231849716 81.8934676594876 -9.5479324368819e-06
  endloop
endfacet
facet normal -4.067452120232147e-07 3.201017602012063e-06 -0.9999999999947942
  outer loop
    vertex 3.0003297022243975 78.60057509697789 2.8028072201358167e-05
    vertex 4.000328942897469 82.60057470919496 -1.0139241146966959e-05
    vertex 4.00032970222408 79.60057589050642 2.6642549665190083e-05
  endloop
endfacet
facet normal -4.067452120232147e-07 3.201017602012063e-06 -0.9999999999947942
  outer loop
    vertex 4.00032970222408 79.60057589050642 2.6642549665190083e-05
    vertex 4.000328942897469 82.60057470919496 -1.0139241146966959e-05
    vertex 183.0005897811279 82.60062030422179 -0.0003164874869588496
  endloop
endfacet
facet normal -4.067452120232147e-07 3.201017602012063e-06 -0.9999999999947942
  outer loop
    vertex 4.00032970222408 79.60057589050642 2.6642549665190083e-05
    vertex 183.0005897811279 82.60062030422179 -0.0003164874869588496
    vertex 17.000144485995715 79.60040876788094 -1.9281192174247507e-05
  endloop
endfacet
facet normal -4.067452120232147e-07 3.201017602012063e-06 -0.9999999999947942
  outer loop
    vertex 17.000144485995715 79.60040876788094 -1.9281192174247507e-05
    vertex 183.0005897811279 82.60062030422179 -0.0003164874869588496
    vertex 20.999180356576 79.60000094456925 -1.8058626934752687e-05
  endloop
endfacet
facet normal -4.067452120232147e-07 3.201017602012063e-06 -0.9999999999947942
  outer loop
    vertex 17.000144485995715 79.60040876788094 -1.9281192174247507e-05
    vertex 20.999180356576 79.60000094456925 -1.8058626934752687e-05
    vertex 17.000449858539298 56.60075957512495 -1.928119309919651e-05
  endloop
endfacet
facet normal -4.067452120232147e-07 3.201017602012063e-06 -0.9999999999947942
  outer loop
    vertex 17.000449858539298 56.60075957512495 -1.928119309919651e-05
    vertex 20.999180356576 79.60000094456925 -1.8058626934752687e-05
    vertex 17.002233401124087 28.99891579257266 -3.4440433865284834e-05
  endloop
endfacet
facet normal -4.067452120232147e-07 3.201017602012063e-06 -0.9999999999947942
  outer loop
    vertex 17.002233401124087 28.99891579257266 -3.4440433865284834e-05
    vertex 20.999180356576 79.60000094456925 -1.8058626934752687e-05
    vertex 17.002637557210825 25.998853838977872 -0.0012058085863587975
  endloop
endfacet
facet normal -4.067452120232147e-07 3.201017602012063e-06 -0.9999999999947942
  outer loop
    vertex 17.002637557210825 25.998853838977872 -0.0012058085863587975
    vertex 20.999180356576 79.60000094456925 -1.8058626934752687e-05
    vertex 17.00472440524692 2.9992210042104333 -0.002113019951237732
  endloop
endfacet
facet normal -4.067452120232147e-07 3.201017602012063e-06 -0.9999999999947942
  outer loop
    vertex 20.999180356576 79.60000094456925 -1.8058626934752687e-05
    vertex 183.0005897811279 82.60062030422179 -0.0003164874869588496
    vertex 91.4999852189962 79.60059778528172 -0.00014777553458184543
  endloop
endfacet
facet normal -4.067452120232147e-07 3.201017602012063e-06 -0.9999999999947942
  outer loop
    vertex 91.4999852189962 79.60059778528172 -0.00014777553458184543
    vertex 183.0005897811279 82.60062030422179 -0.0003164874869588496
    vertex 95.49998521899583 79.6005988509827 -0.00014914007418733165
  endloop
endfacet
facet normal -4.067452120232147e-07 3.201017602012063e-06 -0.9999999999947942
  outer loop
    vertex 91.4999852189962 79.60059778528172 -0.00014777553458184543
    vertex 95.49998521899583 79.6005988509827 -0.00014914007418733165
    vertex 91.50085443435641 26.003658300649754 -0.0010949057073911916
  endloop
endfacet
facet normal -4.067452120232147e-07 3.201017602012063e-06 -0.9999999999947942
  outer loop
    vertex 95.49998521899583 79.6005988509827 -0.00014914007418733165
    vertex 183.0005897811279 82.60062030422179 -0.0003164874869588496
    vertex 137.24998322770514 79.60060935081357 -0.00017130170533266042
  endloop
endfacet
facet normal -4.067452120232147e-07 3.201017602012063e-06 -0.9999999999947942
  outer loop
    vertex 137.24998322770514 79.60060935081357 -0.00017130170533266042
    vertex 183.0005897811279 82.60062030422179 -0.0003164874869588496
    vertex 141.24998322770477 79.60061041651454 -0.00017266624493814662
  endloop
endfacet
facet normal -4.067452120232147e-07 3.201017602012063e-06 -0.9999999999947942
  outer loop
    vertex 137.24998322770514 79.60060935081357 -0.00017130170533266042
    vertex 141.24998322770477 79.60061041651454 -0.00017266624493814662
    vertex 137.25000553493825 3.0000407915775638 -0.00019522117292993245
  endloop
endfacet
facet normal -4.067452120232147e-07 3.201017602012063e-06 -0.9999999999947942
  outer loop
    vertex 141.24998322770477 79.60061041651454 -0.00017266624493814662
    vertex 183.0005897811279 82.60062030422179 -0.0003164874869588496
    vertex 183.00059054045477 79.60062148553324 -0.0002797056961466926
  endloop
endfacet
facet normal -4.067452120232147e-07 3.201017602012063e-06 -0.9999999999947942
  outer loop
    vertex 183.00059054045477 79.60062148553324 -0.0002797056961466926
    vertex 183.0005897811279 82.60062030422179 -0.0003164874869588496
    vertex 184.707115356774 81.892929118702 -0.00018813493390206214
  endloop
endfacet
facet normal -4.067452120232147e-07 3.201017602012063e-06 -0.9999999999947942
  outer loop
    vertex 183.00059054045477 79.60062148553324 -0.0002797056961466926
    vertex 184.707115356774 81.892929118702 -0.00018813493390206214
    vertex 184.0000137443227 78.60004151719963 -0.00015128484597762835
  endloop
endfacet
facet normal -4.067452120232147e-07 3.201017602012063e-06 -0.9999999999947942
  outer loop
    vertex 184.0000137443227 78.60004151719963 -0.00015128484597762835
    vertex 184.707115356774 81.892929118702 -0.00018813493390206214
    vertex 184.00001380099704 4.00004249223902 -0.00021073598022988138
  endloop
endfacet
facet normal -4.067452120232147e-07 3.201017602012063e-06 -0.9999999999947942
  outer loop
    vertex 184.00001380099704 4.00004249223902 -0.00021073598022988138
    vertex 184.707115356774 81.892929118702 -0.00018813493390206214
    vertex 184.7071088139094 0.7071590709785812 -0.00024842917290395227
  endloop
endfacet
facet normal -4.067452120232147e-07 3.201017602012063e-06 -0.9999999999947942
  outer loop
    vertex 184.7071088139094 0.7071590709785812 -0.00024842917290395227
    vertex 184.707115356774 81.892929118702 -0.00018813493390206214
    vertex 186.29290625030387 2.292934532400034 -0.00024761106322050973
  endloop
endfacet
facet normal -4.067452120232147e-07 3.201017602012063e-06 -0.9999999999947942
  outer loop
    vertex 186.29290625030387 2.292934532400034 -0.00024761106322050973
    vertex 184.707115356774 81.892929118702 -0.00018813493390206214
    vertex 186.29290621280748 80.30714711942507 -0.00018810204512365036
  endloop
endfacet
facet normal -4.067452120232147e-07 3.201017602012063e-06 -0.9999999999947942
  outer loop
    vertex 186.29290625030387 2.292934532400034 -0.00024761106322050973
    vertex 186.29290621280748 80.30714711942507 -0.00018810204512365036
    vertex 187.00001298499586 78.60004033588818 -0.0001880666367897854
  endloop
endfacet
facet normal -4.067452120232147e-07 3.201017602012063e-06 -0.9999999999947942
  outer loop
    vertex 186.29290625030387 2.292934532400034 -0.00024761106322050973
    vertex 187.00001298499586 78.60004033588818 -0.0001880666367897854
    vertex 187.0000130416702 4.000041310927575 -0.00024751777103921847
  endloop
endfacet
facet normal -4.067452120232147e-07 3.201017602012063e-06 -0.9999999999947942
  outer loop
    vertex 3.0003297022243975 4.000575107013673 2.8028072201358167e-05
    vertex 4.000013012252507 4.1091043055293575e-06 -0.00018654674092750677
    vertex 2.2932221617112343 0.7076807068887698 -8.753718610798877e-06
  endloop
endfacet
facet normal -4.067452120232147e-07 3.201017602012063e-06 -0.9999999999947942
  outer loop
    vertex 4.000013012252507 4.1091043055293575e-06 -0.00018654674092750677
    vertex 3.0003297022243975 4.000575107013673 2.8028072201358167e-05
    vertex 4.000013771579116 3.000005290415748 -0.00014976495012098965
  endloop
endfacet
facet normal -4.067452120232147e-07 3.201017602012063e-06 -0.9999999999947942
  outer loop
    vertex 4.000013012252507 4.1091043055293575e-06 -0.00018654674092750677
    vertex 4.000013771579116 3.000005290415748 -0.00014976495012098965
    vertex 183.00000203006434 5.1799220387024016e-05 -0.0002476098845450192
  endloop
endfacet
facet normal -4.067452120232147e-07 3.201017602012063e-06 -0.9999999999947942
  outer loop
    vertex 183.00000203006434 5.1799220387024016e-05 -0.0002476098845450192
    vertex 4.000013771579116 3.000005290415748 -0.00014976495012098965
    vertex 17.00472440524692 2.9992210042104333 -0.002113019951237732
  endloop
endfacet
facet normal -4.067452120232147e-07 3.201017602012063e-06 -0.9999999999947942
  outer loop
    vertex 183.00000203006434 5.1799220387024016e-05 -0.0002476098845450192
    vertex 17.00472440524692 2.9992210042104333 -0.002113019951237732
    vertex 21.004120552431576 2.999741493776261 -0.0020177855546855195
  endloop
endfacet
facet normal -4.067452120232147e-07 3.201017602012063e-06 -0.9999999999947942
  outer loop
    vertex 21.004120552431576 2.999741493776261 -0.0020177855546855195
    vertex 17.00472440524692 2.9992210042104333 -0.002113019951237732
    vertex 21.000663508895254 56.6010175976428 -0.0009663927383097459
  endloop
endfacet
facet normal -4.067452120232147e-07 3.201017602012063e-06 -0.9999999999947942
  outer loop
    vertex 21.000663508895254 56.6010175976428 -0.0009663927383097459
    vertex 17.00472440524692 2.9992210042104333 -0.002113019951237732
    vertex 20.999180356576 79.60000094456925 -1.8058626934752687e-05
  endloop
endfacet
facet normal -4.067452120232147e-07 3.201017602012063e-06 -0.9999999999947942
  outer loop
    vertex 21.004120552431576 2.999741493776261 -0.0020177855546855195
    vertex 21.000663508895254 56.6010175976428 -0.0009663927383097459
    vertex 21.00263737516216 25.99911171922801 -0.001069451443319691
  endloop
endfacet
facet normal -4.067452120232147e-07 3.201017602012063e-06 -0.9999999999947942
  outer loop
    vertex 183.00000203006434 5.1799220387024016e-05 -0.0002476098845450192
    vertex 21.004120552431576 2.999741493776261 -0.0020177855546855195
    vertex 91.50000828048535 3.000028602623297 -0.00017961425212488779
  endloop
endfacet
facet normal -4.067452120232147e-07 3.201017602012063e-06 -0.9999999999947942
  outer loop
    vertex 183.00000203006434 5.1799220387024016e-05 -0.0002476098845450192
    vertex 91.50000828048535 3.000028602623297 -0.00017961425212488779
    vertex 95.50000828048498 3.0000296683242804 -0.000180978791731079
  endloop
endfacet
facet normal -4.067452120232147e-07 3.201017602012063e-06 -0.9999999999947942
  outer loop
    vertex 95.50000828048498 3.0000296683242804 -0.000180978791731079
    vertex 91.50000828048535 3.000028602623297 -0.00017961425212488779
    vertex 91.50085443435641 26.003658300649754 -0.0010949057073911916
  endloop
endfacet
facet normal -4.067452120232147e-07 3.201017602012063e-06 -0.9999999999947942
  outer loop
    vertex 95.50000828048498 3.0000296683242804 -0.000180978791731079
    vertex 91.50085443435641 26.003658300649754 -0.0010949057073911916
    vertex 95.49998521899583 79.6005988509827 -0.00014914007418733165
  endloop
endfacet
facet normal -4.067452120232147e-07 3.201017602012063e-06 -0.9999999999947942
  outer loop
    vertex 183.00000203006434 5.1799220387024016e-05 -0.0002476098845450192
    vertex 95.50000828048498 3.0000296683242804 -0.000180978791731079
    vertex 137.25000553493825 3.0000407915775638 -0.00019522117292993245
  endloop
endfacet
facet normal -4.067452120232147e-07 3.201017602012063e-06 -0.9999999999947942
  outer loop
    vertex 183.00000203006434 5.1799220387024016e-05 -0.0002476098845450192
    vertex 137.25000553493825 3.0000407915775638 -0.00019522117292993245
    vertex 141.25000553493788 3.000041857278547 -0.00019658571253612365
  endloop
endfacet
facet normal -4.067452120232147e-07 3.201017602012063e-06 -0.9999999999947942
  outer loop
    vertex 141.25000553493788 3.000041857278547 -0.00019658571253612365
    vertex 137.25000553493825 3.0000407915775638 -0.00019522117292993245
    vertex 141.24998322770477 79.60061041651454 -0.00017266624493814662
  endloop
endfacet
facet normal -4.067452120232147e-07 3.201017602012063e-06 -0.9999999999947942
  outer loop
    vertex 183.00000203006434 5.1799220387024016e-05 -0.0002476098845450192
    vertex 141.25000553493788 3.000041857278547 -0.00019658571253612365
    vertex 183.0000027893912 3.0000529805318297 -0.00021082809373568212
  endloop
endfacet
facet normal -4.067452120232147e-07 3.201017602012063e-06 -0.9999999999947942
  outer loop
    vertex 183.00000203006434 5.1799220387024016e-05 -0.0002476098845450192
    vertex 183.0000027893912 3.0000529805318297 -0.00021082809373568212
    vertex 184.7071088139094 0.7071590709785812 -0.00024842917290395227
  endloop
endfacet
facet normal -4.067452120232147e-07 3.201017602012063e-06 -0.9999999999947942
  outer loop
    vertex 184.7071088139094 0.7071590709785812 -0.00024842917290395227
    vertex 183.0000027893912 3.0000529805318297 -0.00021082809373568212
    vertex 184.00001380099704 4.00004249223902 -0.00021073598022988138
  endloop
endfacet
facet normal -4.067452120232147e-07 3.201017602012063e-06 -0.9999999999947942
  outer loop
    vertex 21.002940433705096 28.99899781214945 -0.0010694514667437427
    vertex 91.50085443435641 26.003658300649754 -0.0010949057073911916
    vertex 21.00263737516216 25.99911171922801 -0.001069451443319691
  endloop
endfacet
facet normal -4.067452120232147e-07 3.201017602012063e-06 -0.9999999999947942
  outer loop
    vertex 91.50085443435641 26.003658300649754 -0.0010949057073911916
    vertex 21.002940433705096 28.99899781214945 -0.0010694514667437427
    vertex 91.49857786260657 28.99899781214945 -0.0010694514667437427
  endloop
endfacet
facet normal -4.067452120232147e-07 3.201017602012063e-06 -0.9999999999947942
  outer loop
    vertex 91.50085443435641 26.003658300649754 -0.0010949057073911916
    vertex 91.49857786260657 28.99899781214945 -0.0010694514667437427
    vertex 91.4985778626074 53.59996481970222 -0.000990406324138271
  endloop
endfacet
facet normal -4.067452120232147e-07 3.201017602012063e-06 -0.9999999999947942
  outer loop
    vertex 91.50085443435641 26.003658300649754 -0.0010949057073911916
    vertex 91.4985778626074 53.59996481970222 -0.000990406324138271
    vertex 91.49888089619715 56.605564050608216 -0.0009904064543939327
  endloop
endfacet
facet normal -4.067452120232147e-07 3.201017602012063e-06 -0.9999999999947942
  outer loop
    vertex 91.50085443435641 26.003658300649754 -0.0010949057073911916
    vertex 91.49888089619715 56.605564050608216 -0.0009904064543939327
    vertex 91.4999852189962 79.60059778528172 -0.00014777553458184543
  endloop
endfacet
facet normal -4.067452120232147e-07 3.201017602012063e-06 -0.9999999999947942
  outer loop
    vertex 0.0003294310966403673 29.000004578211115 -8.753719090193179e-06
    vertex 0.7071197934390486 2.2928973279177565 -0.00018654674092750677
    vertex 0.0003289428977826377 4.000573925702228 -8.753718610798877e-06
  endloop
endfacet
facet normal -4.067452120232147e-07 3.201017602012063e-06 -0.9999999999947942
  outer loop
    vertex 0.7071197934390486 2.2928973279177565 -0.00018654674092750677
    vertex 0.0003294310966403673 29.000004578211115 -8.753719090193179e-06
    vertex 3.00061859195837 25.99999578754344 -6.849182072588e-06
  endloop
endfacet
facet normal -4.067452120232147e-07 3.201017602012063e-06 -0.9999999999947942
  outer loop
    vertex 3.00061859195837 25.99999578754344 -6.849182072588e-06
    vertex 0.0003294310966403673 29.000004578211115 -8.753719090193179e-06
    vertex 17.002233401124087 28.99891579257266 -3.4440433865284834e-05
  endloop
endfacet
facet normal -4.067452120232147e-07 3.201017602012063e-06 -0.9999999999947942
  outer loop
    vertex 0.7071197934390486 2.2928973279177565 -0.00018654674092750677
    vertex 3.00061859195837 25.99999578754344 -6.849182072588e-06
    vertex 2.2932221617112343 0.7076807068887698 -8.753718610798877e-06
  endloop
endfacet
facet normal -4.067452120232147e-07 3.201017602012063e-06 -0.9999999999947942
  outer loop
    vertex 2.2932221617112343 0.7076807068887698 -8.753718610798877e-06
    vertex 3.00061859195837 25.99999578754344 -6.849182072588e-06
    vertex 3.0003297022243975 4.000575107013673 2.8028072201358167e-05
  endloop
endfacet
facet normal -4.067452120232147e-07 3.201017602012063e-06 -0.9999999999947942
  outer loop
    vertex 3.00061859195837 25.99999578754344 -6.849182072588e-06
    vertex 17.002233401124087 28.99891579257266 -3.4440433865284834e-05
    vertex 17.002637557210825 25.998853838977872 -0.0012058085863587975
  endloop
endfacet
facet normal -4.067452120232147e-07 3.201017602012063e-06 -0.9999999999947942
  outer loop
    vertex 0.7074356539456086 80.30768076699164 -8.998646686841915e-06
    vertex 0.0003305369007242975 53.60057376329955 -8.753718852611003e-06
    vertex 0.0003289428977826377 78.60057391566643 -8.753718610798877e-06
  endloop
endfacet
facet normal -4.067452120232147e-07 3.201017602012063e-06 -0.9999999999947942
  outer loop
    vertex 0.0003305369007242975 53.60057376329955 -8.753718852611003e-06
    vertex 0.7074356539456086 80.30768076699164 -8.998646686841915e-06
    vertex 3.0006195145605083 56.600573695603074 -6.849304452788418e-06
  endloop
endfacet
facet normal -4.067452120232147e-07 3.201017602012063e-06 -0.9999999999947942
  outer loop
    vertex 0.0003305369007242975 53.60057376329955 -8.753718852611003e-06
    vertex 3.0006195145605083 56.600573695603074 -6.849304452788418e-06
    vertex 17.00033132663906 53.59996481964395 -1.7799314636202102e-05
  endloop
endfacet
facet normal -4.067452120232147e-07 3.201017602012063e-06 -0.9999999999947942
  outer loop
    vertex 3.0006195145605083 56.600573695603074 -6.849304452788418e-06
    vertex 0.7074356539456086 80.30768076699164 -8.998646686841915e-06
    vertex 2.293222231849716 81.8934676594876 -9.5479324368819e-06
  endloop
endfacet
facet normal -4.067452120232147e-07 3.201017602012063e-06 -0.9999999999947942
  outer loop
    vertex 3.0006195145605083 56.600573695603074 -6.849304452788418e-06
    vertex 2.293222231849716 81.8934676594876 -9.5479324368819e-06
    vertex 3.0003297022243975 78.60057509697789 2.8028072201358167e-05
  endloop
endfacet
facet normal -4.067452120232147e-07 3.201017602012063e-06 -0.9999999999947942
  outer loop
    vertex 17.00033132663906 53.59996481964395 -1.7799314636202102e-05
    vertex 3.0006195145605083 56.600573695603074 -6.849304452788418e-06
    vertex 17.000449858539298 56.60075957512495 -1.928119309919651e-05
  endloop
endfacet
facet normal -4.067452120232147e-07 3.201017602012063e-06 -0.9999999999947942
  outer loop
    vertex 17.00033132663906 53.59996481964395 -1.7799314636202102e-05
    vertex 17.000449858539298 56.60075957512495 -1.928119309919651e-05
    vertex 17.002233401124087 28.99891579257266 -3.4440433865284834e-05
  endloop
endfacet
facet normal 9.677224461652025e-07 -7.919009805237817e-07 0.9999999999992182
  outer loop
    vertex 91.50085496049735 26.00365830068369 1.9988846799840323
    vertex 21.00294095984605 28.998997812183386 1.9989101342246793
    vertex 21.002637901303114 25.999111719261947 1.9989101342481035
  endloop
endfacet
facet normal 9.677224461652025e-07 -7.919009805237817e-07 0.9999999999992182
  outer loop
    vertex 21.00294095984605 28.998997812183386 1.9989101342246793
    vertex 91.50085496049735 26.00365830068369 1.9988846799840323
    vertex 91.498578372458 28.998997812140857 1.9989636274548754
  endloop
endfacet
facet normal 9.677224461652025e-07 -7.919009805237817e-07 0.9999999999992182
  outer loop
    vertex 91.498578372458 28.998997812140857 1.9989636274548754
    vertex 91.50085496049735 26.00365830068369 1.9988846799840323
    vertex 91.49857837245884 53.5999648197351 1.9989890706196374
  endloop
endfacet
facet normal 9.677224461652025e-07 -7.919009805237817e-07 0.9999999999992182
  outer loop
    vertex 91.49857837245884 53.5999648197351 1.9989890706196374
    vertex 91.50085496049735 26.00365830068369 1.9988846799840323
    vertex 91.49888140604858 56.6055640506411 1.998989070489383
  endloop
endfacet
facet normal 9.677224461652025e-07 -7.919009805237817e-07 0.9999999999992182
  outer loop
    vertex 91.49888140604858 56.6055640506411 1.998989070489383
    vertex 91.50085496049735 26.00365830068369 1.9988846799840323
    vertex 91.49998521899643 79.6005969540051 1.9998154426732915
  endloop
endfacet
facet normal 9.677224461652025e-07 -7.919009805237817e-07 0.9999999999992182
  outer loop
    vertex 4.000015954165759 4.182047505710941e-06 1.9998134532569327
    vertex 3.0003318848110405 4.000573998645432 1.9999912462792495
    vertex 2.2932251036244957 0.7076807798319706 1.9999912462792495
  endloop
endfacet
facet normal 9.677224461652025e-07 -7.919009805237817e-07 0.9999999999992182
  outer loop
    vertex 3.0003318848110405 4.000573998645432 1.9999912462792495
    vertex 4.000015954165759 4.182047505710941e-06 1.9998134532569327
    vertex 4.000015954165759 3.0000041820475056 1.9998134532569327
  endloop
endfacet
facet normal 9.677224461652025e-07 -7.919009805237817e-07 0.9999999999992182
  outer loop
    vertex 4.000015954165759 3.0000041820475056 1.9998134532569327
    vertex 4.000015954165759 4.182047505710941e-06 1.9998134532569327
    vertex 183.0000049719778 5.187216358720558e-05 1.9997523901133123
  endloop
endfacet
facet normal 9.677224461652025e-07 -7.919009805237817e-07 0.9999999999992182
  outer loop
    vertex 4.000015954165759 3.0000041820475056 1.9998134532569327
    vertex 183.0000049719778 5.187216358720558e-05 1.9997523901133123
    vertex 17.004724407132752 2.999063156368127 1.9978835765147314
  endloop
endfacet
facet normal 9.677224461652025e-07 -7.919009805237817e-07 0.9999999999992182
  outer loop
    vertex 17.004724407132752 2.999063156368127 1.9978835765147314
    vertex 183.0000049719778 5.187216358720558e-05 1.9997523901133123
    vertex 21.004121900369373 2.999741493776272 1.997962787025163
  endloop
endfacet
facet normal 9.677224461652025e-07 -7.919009805237817e-07 0.9999999999992182
  outer loop
    vertex 17.004724407132752 2.999063156368127 1.9978835765147314
    vertex 21.004121900369373 2.999741493776272 1.997962787025163
    vertex 21.002637901303114 25.999111719261947 1.9989101342481035
  endloop
endfacet
facet normal 9.677224461652025e-07 -7.919009805237817e-07 0.9999999999992182
  outer loop
    vertex 17.004724407132752 2.999063156368127 1.9978835765147314
    vertex 21.002637901303114 25.999111719261947 1.9989101342481035
    vertex 21.000664018746672 56.60101759767568 1.999013084205466
  endloop
endfacet
facet normal 9.677224461652025e-07 -7.919009805237817e-07 0.9999999999992182
  outer loop
    vertex 17.004724407132752 2.999063156368127 1.9978835765147314
    vertex 21.000664018746672 56.60101759767568 1.999013084205466
    vertex 20.999181080622954 79.60000094457877 1.9999604314284112
  endloop
endfacet
facet normal 9.677224461652025e-07 -7.919009805237817e-07 0.9999999999992182
  outer loop
    vertex 21.004121900369373 2.999741493776272 1.997962787025163
    vertex 183.0000049719778 5.187216358720558e-05 1.9997523901133123
    vertex 91.50000828048557 3.000027771346679 1.9997836039557466
  endloop
endfacet
facet normal 9.677224461652025e-07 -7.919009805237817e-07 0.9999999999992182
  outer loop
    vertex 91.50000828048557 3.000027771346679 1.9997836039557466
    vertex 183.0000049719778 5.187216358720558e-05 1.9997523901133123
    vertex 95.50000828048512 3.0000291141398687 1.9997822394160643
  endloop
endfacet
facet normal 9.677224461652025e-07 -7.919009805237817e-07 0.9999999999992182
  outer loop
    vertex 91.50000828048557 3.000027771346679 1.9997836039557466
    vertex 95.50000828048512 3.0000291141398687 1.9997822394160643
    vertex 91.50085496049735 26.00365830068369 1.9988846799840323
  endloop
endfacet
facet normal 9.677224461652025e-07 -7.919009805237817e-07 0.9999999999992182
  outer loop
    vertex 91.50085496049735 26.00365830068369 1.9988846799840323
    vertex 95.50000828048512 3.0000291141398687 1.9997822394160643
    vertex 95.49998521899597 79.6005982967983 1.9998140781336091
  endloop
endfacet
facet normal 9.677224461652025e-07 -7.919009805237817e-07 0.9999999999992182
  outer loop
    vertex 95.50000828048512 3.0000291141398687 1.9997822394160643
    vertex 183.0000049719778 5.187216358720558e-05 1.9997523901133123
    vertex 137.25000553493845 3.000040171286874 1.9997679970349056
  endloop
endfacet
facet normal 9.677224461652025e-07 -7.919009805237817e-07 0.9999999999992182
  outer loop
    vertex 137.25000553493845 3.000040171286874 1.9997679970349056
    vertex 183.0000049719778 5.187216358720558e-05 1.9997523901133123
    vertex 141.250005534938 3.000041435306705 1.9997666324952574
  endloop
endfacet
facet normal 9.677224461652025e-07 -7.919009805237817e-07 0.9999999999992182
  outer loop
    vertex 137.25000553493845 3.000040171286874 1.9997679970349056
    vertex 141.250005534938 3.000041435306705 1.9997666324952574
    vertex 141.2499832277049 79.60060999454271 1.9997905519628543
  endloop
endfacet
facet normal 9.677224461652025e-07 -7.919009805237817e-07 0.9999999999992182
  outer loop
    vertex 141.250005534938 3.000041435306705 1.9997666324952574
    vertex 183.0000049719778 5.187216358720558e-05 1.9997523901133123
    vertex 183.0000049719778 3.0000518721635876 1.9997523901133123
  endloop
endfacet
facet normal 9.677224461652025e-07 -7.919009805237817e-07 0.9999999999992182
  outer loop
    vertex 183.0000049719778 3.0000518721635876 1.9997523901133123
    vertex 183.0000049719778 5.187216358720558e-05 1.9997523901133123
    vertex 184.70711175582284 0.7071591439217821 1.9997515708249534
  endloop
endfacet
facet normal 9.677224461652025e-07 -7.919009805237817e-07 0.9999999999992182
  outer loop
    vertex 183.0000049719778 3.0000518721635876 1.9997523901133123
    vertex 184.70711175582284 0.7071591439217821 1.9997515708249534
    vertex 184.00001598358364 4.000041383870778 1.9997524822268182
  endloop
endfacet
facet normal 9.677224461652025e-07 -7.919009805237817e-07 0.9999999999992182
  outer loop
    vertex 3.0003318848110405 78.60057398860964 1.9999912462792495
    vertex 4.000331884810722 82.60057478213817 1.9999898607567133
    vertex 2.2932251737629774 81.89346773243082 1.9999904520654233
  endloop
endfacet
facet normal 9.677224461652025e-07 -7.919009805237817e-07 0.9999999999992182
  outer loop
    vertex 4.000331884810722 82.60057478213817 1.9999898607567133
    vertex 3.0003318848110405 78.60057398860964 1.9999912462792495
    vertex 4.000331884810722 79.60057478213818 1.9999898607567133
  endloop
endfacet
facet normal 9.677224461652025e-07 -7.919009805237817e-07 0.9999999999992182
  outer loop
    vertex 4.000331884810722 82.60057478213817 1.9999898607567133
    vertex 4.000331884810722 79.60057478213818 1.9999898607567133
    vertex 17.000144485995715 79.60040876788088 1.9999659489468957
  endloop
endfacet
facet normal 9.677224461652025e-07 -7.919009805237817e-07 0.9999999999992182
  outer loop
    vertex 4.000331884810722 82.60057478213817 1.9999898607567133
    vertex 17.000144485995715 79.60040876788088 1.9999659489468957
    vertex 183.00059272304136 82.600620377165 1.9996835125109014
  endloop
endfacet
facet normal 9.677224461652025e-07 -7.919009805237817e-07 0.9999999999992182
  outer loop
    vertex 183.00059272304136 82.600620377165 1.9996835125109014
    vertex 17.000144485995715 79.60040876788088 1.9999659489468957
    vertex 20.999181080622954 79.60000094457877 1.9999604314284112
  endloop
endfacet
facet normal 9.677224461652025e-07 -7.919009805237817e-07 0.9999999999992182
  outer loop
    vertex 20.999181080622954 79.60000094457877 1.9999604314284112
    vertex 17.000144485995715 79.60040876788088 1.9999659489468957
    vertex 17.000449858539298 56.60075957512489 1.9999659489459714
  endloop
endfacet
facet normal 9.677224461652025e-07 -7.919009805237817e-07 0.9999999999992182
  outer loop
    vertex 20.999181080622954 79.60000094457877 1.9999604314284112
    vertex 17.000449858539298 56.60075957512489 1.9999659489459714
    vertex 17.002235854808493 28.998914330793262 1.9998776374448313
  endloop
endfacet
facet normal 9.677224461652025e-07 -7.919009805237817e-07 0.9999999999992182
  outer loop
    vertex 20.999181080622954 79.60000094457877 1.9999604314284112
    vertex 17.002235854808493 28.998914330793262 1.9998776374448313
    vertex 17.002637559096655 25.998695991135566 1.9987907878796103
  endloop
endfacet
facet normal 9.677224461652025e-07 -7.919009805237817e-07 0.9999999999992182
  outer loop
    vertex 20.999181080622954 79.60000094457877 1.9999604314284112
    vertex 17.002637559096655 25.998695991135566 1.9987907878796103
    vertex 17.004724407132752 2.999063156368127 1.9978835765147314
  endloop
endfacet
facet normal 9.677224461652025e-07 -7.919009805237817e-07 0.9999999999992182
  outer loop
    vertex 183.00059272304136 82.600620377165 1.9996835125109014
    vertex 20.999181080622954 79.60000094457877 1.9999604314284112
    vertex 91.49998521899643 79.6005969540051 1.9998154426732915
  endloop
endfacet
facet normal 9.677224461652025e-07 -7.919009805237817e-07 0.9999999999992182
  outer loop
    vertex 183.00059272304136 82.600620377165 1.9996835125109014
    vertex 91.49998521899643 79.6005969540051 1.9998154426732915
    vertex 95.49998521899597 79.6005982967983 1.9998140781336091
  endloop
endfacet
facet normal 9.677224461652025e-07 -7.919009805237817e-07 0.9999999999992182
  outer loop
    vertex 95.49998521899597 79.6005982967983 1.9998140781336091
    vertex 91.49998521899643 79.6005969540051 1.9998154426732915
    vertex 91.50085496049735 26.00365830068369 1.9988846799840323
  endloop
endfacet
facet normal 9.677224461652025e-07 -7.919009805237817e-07 0.9999999999992182
  outer loop
    vertex 183.00059272304136 82.600620377165 1.9996835125109014
    vertex 95.49998521899597 79.6005982967983 1.9998140781336091
    vertex 137.24998322770531 79.60060873052288 1.9997919165025024
  endloop
endfacet
facet normal 9.677224461652025e-07 -7.919009805237817e-07 0.9999999999992182
  outer loop
    vertex 183.00059272304136 82.600620377165 1.9996835125109014
    vertex 137.24998322770531 79.60060873052288 1.9997919165025024
    vertex 141.2499832277049 79.60060999454271 1.9997905519628543
  endloop
endfacet
facet normal 9.677224461652025e-07 -7.919009805237817e-07 0.9999999999992182
  outer loop
    vertex 141.2499832277049 79.60060999454271 1.9997905519628543
    vertex 137.24998322770531 79.60060873052288 1.9997919165025024
    vertex 137.25000553493845 3.000040171286874 1.9997679970349056
  endloop
endfacet
facet normal 9.677224461652025e-07 -7.919009805237817e-07 0.9999999999992182
  outer loop
    vertex 183.00059272304136 82.600620377165 1.9996835125109014
    vertex 141.2499832277049 79.60060999454271 1.9997905519628543
    vertex 183.00059272304136 79.600620377165 1.9996835125109014
  endloop
endfacet
facet normal 9.677224461652025e-07 -7.919009805237817e-07 0.9999999999992182
  outer loop
    vertex 183.00059272304136 82.600620377165 1.9996835125109014
    vertex 183.00059272304136 79.600620377165 1.9996835125109014
    vertex 184.00001592690933 78.60004040883139 1.9998119333610704
  endloop
endfacet
facet normal 9.677224461652025e-07 -7.919009805237817e-07 0.9999999999992182
  outer loop
    vertex 183.00059272304136 82.600620377165 1.9996835125109014
    vertex 184.00001592690933 78.60004040883139 1.9998119333610704
    vertex 184.70711829868748 81.89292919164521 1.9998118650639582
  endloop
endfacet
facet normal 9.677224461652025e-07 -7.919009805237817e-07 0.9999999999992182
  outer loop
    vertex 184.70711829868748 81.89292919164521 1.9998118650639582
    vertex 184.00001592690933 78.60004040883139 1.9998119333610704
    vertex 184.00001598358364 4.000041383870778 1.9997524822268182
  endloop
endfacet
facet normal 9.677224461652025e-07 -7.919009805237817e-07 0.9999999999992182
  outer loop
    vertex 184.70711829868748 81.89292919164521 1.9998118650639582
    vertex 184.00001598358364 4.000041383870778 1.9997524822268182
    vertex 184.70711175582284 0.7071591439217821 1.9997515708249534
  endloop
endfacet
facet normal 9.677224461652025e-07 -7.919009805237817e-07 0.9999999999992182
  outer loop
    vertex 184.70711829868748 81.89292919164521 1.9998118650639582
    vertex 184.70711175582284 0.7071591439217821 1.9997515708249534
    vertex 186.29290919221734 2.2929346053432367 1.9997523889346398
  endloop
endfacet
facet normal 9.677224461652025e-07 -7.919009805237817e-07 0.9999999999992182
  outer loop
    vertex 184.70711829868748 81.89292919164521 1.9998118650639582
    vertex 186.29290919221734 2.2929346053432367 1.9997523889346398
    vertex 186.29290915472095 80.30714719236829 1.9998118979527366
  endloop
endfacet
facet normal 9.677224461652025e-07 -7.919009805237817e-07 0.9999999999992182
  outer loop
    vertex 186.29290915472095 80.30714719236829 1.9998118979527366
    vertex 186.29290919221734 2.2929346053432367 1.9997523889346398
    vertex 187.0000159269093 78.60004040883139 1.9998119333610704
  endloop
endfacet
facet normal 9.677224461652025e-07 -7.919009805237817e-07 0.9999999999992182
  outer loop
    vertex 187.0000159269093 78.60004040883139 1.9998119333610704
    vertex 186.29290919221734 2.2929346053432367 1.9997523889346398
    vertex 187.00001598358364 4.000041383870778 1.9997524822268182
  endloop
endfacet
facet normal 9.677224461652025e-07 -7.919009805237817e-07 0.9999999999992182
  outer loop
    vertex 21.000664018746672 56.60101759767568 1.999013084205466
    vertex 21.002940959846907 53.5999648197351 1.9989890706196374
    vertex 91.49888140604858 56.6055640506411 1.998989070489383
  endloop
endfacet
facet normal 9.677224461652025e-07 -7.919009805237817e-07 0.9999999999992182
  outer loop
    vertex 21.002940959846907 53.5999648197351 1.9989890706196374
    vertex 21.000664018746672 56.60101759767568 1.999013084205466
    vertex 21.002637901303114 25.999111719261947 1.9989101342481035
  endloop
endfacet
facet normal 9.677224461652025e-07 -7.919009805237817e-07 0.9999999999992182
  outer loop
    vertex 21.002940959846907 53.5999648197351 1.9989890706196374
    vertex 21.002637901303114 25.999111719261947 1.9989101342481035
    vertex 21.00294095984605 28.998997812183386 1.9989101342246793
  endloop
endfacet
facet normal 9.677224461652025e-07 -7.919009805237817e-07 0.9999999999992182
  outer loop
    vertex 91.49888140604858 56.6055640506411 1.998989070489383
    vertex 21.002940959846907 53.5999648197351 1.9989890706196374
    vertex 91.49857837245884 53.5999648197351 1.9989890706196374
  endloop
endfacet
facet normal 9.677224461652025e-07 -7.919009805237817e-07 0.9999999999992182
  outer loop
    vertex 0.00033188483851628956 53.600573763299565 1.999971818860996
    vertex 0.7074385958588655 80.30768083993486 1.9999910013511735
    vertex 0.000331884811040354 78.60057398860964 1.9999912462792495
  endloop
endfacet
facet normal 9.677224461652025e-07 -7.919009805237817e-07 0.9999999999992182
  outer loop
    vertex 0.7074385958588655 80.30768083993486 1.9999910013511735
    vertex 0.00033188483851628956 53.600573763299565 1.999971818860996
    vertex 3.000620238607459 56.60057369561258 1.9999716407508945
  endloop
endfacet
facet normal 9.677224461652025e-07 -7.919009805237817e-07 0.9999999999992182
  outer loop
    vertex 3.000620238607459 56.60057369561258 1.9999716407508945
    vertex 0.00033188483851628956 53.600573763299565 1.999971818860996
    vertex 17.000331884837962 53.600578093494654 1.9999723667447555
  endloop
endfacet
facet normal 9.677224461652025e-07 -7.919009805237817e-07 0.9999999999992182
  outer loop
    vertex 0.7074385958588655 80.30768083993486 1.9999910013511735
    vertex 3.000620238607459 56.60057369561258 1.9999716407508945
    vertex 2.2932251737629774 81.89346773243082 1.9999904520654233
  endloop
endfacet
facet normal 9.677224461652025e-07 -7.919009805237817e-07 0.9999999999992182
  outer loop
    vertex 2.2932251737629774 81.89346773243082 1.9999904520654233
    vertex 3.000620238607459 56.60057369561258 1.9999716407508945
    vertex 3.0003318848110405 78.60057398860964 1.9999912462792495
  endloop
endfacet
facet normal 9.677224461652025e-07 -7.919009805237817e-07 0.9999999999992182
  outer loop
    vertex 3.000620238607459 56.60057369561258 1.9999716407508945
    vertex 17.000331884837962 53.600578093494654 1.9999723667447555
    vertex 17.000449858539298 56.60075957512489 1.9999659489459714
  endloop
endfacet
facet normal 9.677224461652025e-07 -7.919009805237817e-07 0.9999999999992182
  outer loop
    vertex 17.000449858539298 56.60075957512489 1.9999659489459714
    vertex 17.000331884837962 53.600578093494654 1.9999723667447555
    vertex 17.002235854808493 28.998914330793262 1.9998776374448313
  endloop
endfacet
facet normal 9.677224461652025e-07 -7.919009805237817e-07 0.9999999999992182
  outer loop
    vertex 0.0003318847810463866 29.000003116431717 1.9999033241596071
    vertex 3.0006209617030875 26.000003049278057 1.999911365662479
    vertex 17.002235854808493 28.998914330793262 1.9998776374448313
  endloop
endfacet
facet normal 9.677224461652025e-07 -7.919009805237817e-07 0.9999999999992182
  outer loop
    vertex 3.0006209617030875 26.000003049278057 1.999911365662479
    vertex 0.0003318847810463866 29.000003116431717 1.9999033241596071
    vertex 0.000331884811040354 4.000573998645432 1.9999912462792495
  endloop
endfacet
facet normal 9.677224461652025e-07 -7.919009805237817e-07 0.9999999999992182
  outer loop
    vertex 3.0006209617030875 26.000003049278057 1.999911365662479
    vertex 0.000331884811040354 4.000573998645432 1.9999912462792495
    vertex 0.7071227353523055 2.292897400860959 1.9998134532569327
  endloop
endfacet
facet normal 9.677224461652025e-07 -7.919009805237817e-07 0.9999999999992182
  outer loop
    vertex 3.0006209617030875 26.000003049278057 1.999911365662479
    vertex 0.7071227353523055 2.292897400860959 1.9998134532569327
    vertex 2.2932251036244957 0.7076807798319706 1.9999912462792495
  endloop
endfacet
facet normal 9.677224461652025e-07 -7.919009805237817e-07 0.9999999999992182
  outer loop
    vertex 3.0006209617030875 26.000003049278057 1.999911365662479
    vertex 2.2932251036244957 0.7076807798319706 1.9999912462792495
    vertex 3.0003318848110405 4.000573998645432 1.9999912462792495
  endloop
endfacet
facet normal 9.677224461652025e-07 -7.919009805237817e-07 0.9999999999992182
  outer loop
    vertex 17.002235854808493 28.998914330793262 1.9998776374448313
    vertex 3.0006209617030875 26.000003049278057 1.999911365662479
    vertex 17.002637559096655 25.998695991135566 1.9987907878796103
  endloop
endfacet
endsolid carcasa v4 para esp32 jc4827w543 TAPA
